<svg width="16" height="16" viewBox="0 0 16 16" fill="none" xmlns="http://www.w3.org/2000/svg">
<path fill-rule="evenodd" clip-rule="evenodd" d="M11.8798 10.3368L15.7228 14.1808C16.0928 14.5508 16.0928 15.1488 15.7228 15.5178L15.5178 15.7228C15.43 15.8106 15.3258 15.8803 15.2111 15.9278C15.0964 15.9754 14.9734 15.9998 14.8493 15.9998C14.7251 15.9998 14.6021 15.9754 14.4874 15.9278C14.3727 15.8803 14.2685 15.8106 14.1808 15.7228L10.3368 11.8798C8.99914 12.8305 7.35317 13.244 5.72503 13.0384C4.09688 12.8328 2.60539 12.0231 1.5461 10.7697C0.486817 9.51628 -0.0629521 7.91067 0.00574118 6.27104C0.0744345 4.6314 0.756577 3.0774 1.91699 1.91699C3.0774 0.756577 4.6314 0.0744345 6.27104 0.00574118C7.91067 -0.0629521 9.51628 0.486817 10.7697 1.5461C12.0231 2.60539 12.8328 4.09688 13.0384 5.72503C13.244 7.35317 12.8305 8.99914 11.8798 10.3368ZM6.54476 1.81776C5.924 1.81776 5.30932 1.94003 4.73582 2.17758C4.16231 2.41514 3.64121 2.76332 3.20227 3.20227C2.76332 3.64121 2.41514 4.16231 2.17758 4.73582C1.94003 5.30932 1.81776 5.924 1.81776 6.54476C1.81776 7.16552 1.94003 7.7802 2.17758 8.35371C2.41514 8.92721 2.76332 9.44831 3.20227 9.88725C3.64121 10.3262 4.16231 10.6744 4.73582 10.9119C5.30932 11.1495 5.924 11.2718 6.54476 11.2718C7.79844 11.2718 9.00077 10.7737 9.88725 9.88725C10.7737 9.00077 11.2718 7.79844 11.2718 6.54476C11.2718 5.29108 10.7737 4.08875 9.88725 3.20227C9.00077 2.31578 7.79844 1.81776 6.54476 1.81776Z" fill="#979797"/>
</svg>
