<svg width="12" height="12" viewBox="0 0 12 12" fill="none" xmlns="http://www.w3.org/2000/svg">
<path fill-rule="evenodd" clip-rule="evenodd" d="M7.41403 6L11.677 10.263C11.832 10.418 11.922 10.565 11.969 10.718C12.0155 10.8688 12.0155 11.0302 11.969 11.181C11.922 11.335 11.832 11.481 11.677 11.637L11.637 11.677C11.5121 11.8112 11.3552 11.9117 11.181 11.969C11.0302 12.0154 10.8689 12.0154 10.718 11.969C10.5442 11.9115 10.3877 11.8111 10.263 11.677L6.00003 7.414L1.73703 11.677C1.61238 11.8111 1.45587 11.9115 1.28203 11.969C1.13119 12.0154 0.969877 12.0154 0.819035 11.969C0.644837 11.9117 0.48797 11.8112 0.363034 11.677L0.323034 11.637C0.188795 11.5121 0.0883447 11.3552 0.0310345 11.181C-0.0153904 11.0302 -0.0153904 10.8688 0.0310345 10.718C0.0780345 10.565 0.168034 10.418 0.323034 10.263L4.58603 6L0.323034 1.737C0.188936 1.61234 0.0884957 1.45583 0.0310345 1.282C-0.0153904 1.13115 -0.0153904 0.969839 0.0310345 0.818997C0.0780345 0.664997 0.168034 0.518997 0.323034 0.362997L0.363034 0.322997C0.518034 0.167997 0.665035 0.0779969 0.820035 0.0299969C0.970877 -0.016428 1.13219 -0.016428 1.28303 0.0299969C1.43603 0.0769969 1.58303 0.166997 1.73803 0.321997L6.00003 4.586L10.263 0.322997C10.418 0.167997 10.565 0.0779969 10.718 0.0309969C10.8689 -0.015428 11.0302 -0.015428 11.181 0.0309969C11.335 0.0779969 11.481 0.167997 11.637 0.322997L11.677 0.362997C11.832 0.517997 11.922 0.664997 11.969 0.818997C12.0155 0.969839 12.0155 1.13115 11.969 1.282C11.922 1.435 11.832 1.582 11.677 1.737L7.41403 6Z" fill="#1B60FF"/>
</svg>
